<svg width="29" height="29" viewBox="0 0 29 29" fill="none" xmlns="http://www.w3.org/2000/svg">
<path fill-rule="evenodd" clip-rule="evenodd" d="M4.49827 12.087V19.437C4.49827 23.4962 7.98843 26.787 12.2937 26.787C16.599 26.787 20.0892 23.4962 20.0892 19.437V12.087H4.49827ZM2.271 11.154C2.271 10.5095 2.8252 9.98696 3.50877 9.98696H21.0787C21.7623 9.98696 22.3165 10.5095 22.3165 11.154V19.437C22.3165 24.656 17.8291 28.887 12.2937 28.887C6.75834 28.887 2.271 24.656 2.271 19.437V11.154Z" fill="#A9CEB6"/>
<path fill-rule="evenodd" clip-rule="evenodd" d="M20.0892 11.037C20.0892 10.4571 20.5878 9.98696 21.2028 9.98696C24.278 9.98696 26.771 12.3375 26.771 15.237C26.771 18.1365 24.278 20.487 21.2028 20.487C20.5878 20.487 20.0892 20.0169 20.0892 19.437C20.0892 18.8571 20.5878 18.387 21.2028 18.387C23.0479 18.387 24.5437 16.9767 24.5437 15.237C24.5437 13.4973 23.0479 12.087 21.2028 12.087C20.5878 12.087 20.0892 11.6169 20.0892 11.037Z" fill="#A9CEB6"/>
<path fill-rule="evenodd" clip-rule="evenodd" d="M3.38463 2.98696C3.99968 2.98696 4.49827 3.45706 4.49827 4.03696V6.13696C4.49827 6.71686 3.99968 7.18696 3.38463 7.18696C2.76959 7.18696 2.271 6.71686 2.271 6.13696V4.03696C2.271 3.45706 2.76959 2.98696 3.38463 2.98696Z" fill="#A9CEB6"/>
<path fill-rule="evenodd" clip-rule="evenodd" d="M21.2028 2.98696C21.8179 2.98696 22.3165 3.45706 22.3165 4.03696V6.13696C22.3165 6.71686 21.8179 7.18696 21.2028 7.18696C20.5878 7.18696 20.0892 6.71686 20.0892 6.13696V4.03696C20.0892 3.45706 20.5878 2.98696 21.2028 2.98696Z" fill="#A9CEB6"/>
<path fill-rule="evenodd" clip-rule="evenodd" d="M12.2937 0.886963C12.9088 0.886963 13.4074 1.35706 13.4074 1.93696V6.13696C13.4074 6.71686 12.9088 7.18696 12.2937 7.18696C11.6787 7.18696 11.1801 6.71686 11.1801 6.13696V1.93696C11.1801 1.35706 11.6787 0.886963 12.2937 0.886963Z" fill="#A9CEB6"/>
</svg>
