<svg width="29" height="28" viewBox="0 0 29 28" fill="none" xmlns="http://www.w3.org/2000/svg">
<path d="M4.98284 16.3885L4.98282 16.3885L4.9799 16.3934C4.37743 17.4025 4.21342 18.5776 4.6187 19.6837C5.01659 20.7903 5.93714 21.5935 7.04362 21.9679C9.41555 22.7749 11.9045 23.1644 14.3883 23.1644C16.8711 23.1644 19.3575 22.7752 21.7259 21.982C22.8373 21.6159 23.6893 20.7728 24.0954 19.6951C24.5073 18.6021 24.3947 17.3952 23.7818 16.3879C23.7813 16.3871 23.7809 16.3864 23.7804 16.3857L22.6244 14.4666C22.5591 14.3483 22.4718 14.1283 22.3997 13.8617C22.325 13.5858 22.2928 13.3571 22.2928 13.2416V10.2899C22.2928 7.25558 20.5718 4.62491 18.0642 3.30692C17.2505 2.08074 15.8839 1.33541 14.3533 1.33541C12.8231 1.33541 11.4362 2.11045 10.6239 3.3504C8.16879 4.68876 6.48383 7.29207 6.48383 10.2899V13.2416C6.48383 13.3571 6.45168 13.5857 6.37732 13.8592C6.3044 14.1274 6.21734 14.3415 6.15618 14.4484L4.98284 16.3885Z" stroke="#A9CEB6" stroke-width="1.99569"/>
<path d="M18.6051 23.6846L19.1553 22.1651L17.5503 22.3539C17.3483 22.3777 17.1586 22.4014 16.9727 22.4246L16.9714 22.4248L16.9593 22.4263L16.9472 22.4281C16.8221 22.4469 16.7141 22.4553 16.5748 22.4663C16.4913 22.4728 16.3966 22.4802 16.2803 22.4913C15.652 22.5473 15.018 22.5804 14.3885 22.5804C13.7459 22.5804 13.0987 22.5471 12.4574 22.4909L12.4574 22.4909L12.4531 22.4905C12.1998 22.4694 11.9415 22.4374 11.6766 22.4029C11.587 22.3902 11.5016 22.3805 11.4325 22.3727C11.427 22.3721 11.4216 22.3715 11.4164 22.3709C11.3379 22.362 11.2805 22.3553 11.2269 22.347L9.59847 22.0965L10.1309 23.6557C10.3369 24.259 10.6922 24.8647 11.191 25.3388C12.0259 26.1941 13.19 26.6644 14.3652 26.6644C16.3173 26.6644 17.9774 25.4184 18.6051 23.6846Z" stroke="#A9CEB6" stroke-width="1.99569"/>
</svg>
