<svg width="25" height="29" viewBox="0 0 25 29" fill="none" xmlns="http://www.w3.org/2000/svg">
<path d="M15.6976 2.04618C14.1461 0.478751 11.5762 0.478749 10.0246 2.04617L2.44645 9.70199C2.01122 10.1417 1.71876 10.6975 1.60591 11.2995C0.685561 16.209 0.617625 21.235 1.40496 26.1666L1.68371 27.9126C1.77175 28.464 2.25732 28.8706 2.82793 28.8706H8.12324C8.55935 28.8706 8.91289 28.5248 8.91289 28.0982V17.2843H16.8094V28.0982C16.8094 28.5248 17.1629 28.8706 17.599 28.8706H22.8942C23.4648 28.8706 23.9504 28.464 24.0385 27.9126L24.3172 26.1666C25.1045 21.235 25.0366 16.209 24.1163 11.2995C24.0034 10.6975 23.7109 10.1417 23.2757 9.70199L15.6976 2.04618Z" fill="#D5ACA6"/>
</svg>
