<svg width="29" height="28" viewBox="0 0 29 28" fill="none" xmlns="http://www.w3.org/2000/svg">
<path d="M4.40039 21.8747C3.92206 21.8747 3.52539 21.478 3.52539 20.9997V8.16634C3.52539 3.02134 5.08872 1.45801 10.2337 1.45801H18.4004C23.5454 1.45801 25.1087 3.02134 25.1087 8.16634V19.833C25.1087 20.0197 25.1087 20.1947 25.0971 20.3813C25.0621 20.8597 24.6304 21.233 24.1637 21.198C23.6854 21.163 23.3121 20.743 23.3471 20.2647C23.3587 20.1247 23.3587 19.973 23.3587 19.833V8.16634C23.3587 4.00134 22.5771 3.20801 18.4004 3.20801H10.2337C6.05706 3.20801 5.27539 4.00134 5.27539 8.16634V20.9997C5.27539 21.478 4.87872 21.8747 4.40039 21.8747Z" fill="#D5ACA6"/>
<path d="M20.1504 26.5417H8.48372C5.75372 26.5417 3.52539 24.3133 3.52539 21.5833V20.825C3.52539 18.5033 5.41539 16.625 7.72539 16.625H24.2337C24.7121 16.625 25.1087 17.0217 25.1087 17.5V21.5833C25.1087 24.3133 22.8804 26.5417 20.1504 26.5417ZM7.72539 18.375C6.37206 18.375 5.27539 19.4717 5.27539 20.825V21.5833C5.27539 23.3567 6.71039 24.7917 8.48372 24.7917H20.1504C21.9237 24.7917 23.3587 23.3567 23.3587 21.5833V18.375H7.72539Z" fill="#D5ACA6"/>
<path d="M18.9837 9.04199H9.65039C9.17206 9.04199 8.77539 8.64533 8.77539 8.16699C8.77539 7.68866 9.17206 7.29199 9.65039 7.29199H18.9837C19.4621 7.29199 19.8587 7.68866 19.8587 8.16699C19.8587 8.64533 19.4621 9.04199 18.9837 9.04199Z" fill="#D5ACA6"/>
<path d="M15.4837 13.125H9.65039C9.17206 13.125 8.77539 12.7283 8.77539 12.25C8.77539 11.7717 9.17206 11.375 9.65039 11.375H15.4837C15.9621 11.375 16.3587 11.7717 16.3587 12.25C16.3587 12.7283 15.9621 13.125 15.4837 13.125Z" fill="#D5ACA6"/>
</svg>
