<svg width="29" height="28" viewBox="0 0 29 28" fill="none" xmlns="http://www.w3.org/2000/svg">
<path d="M4.98308 16.3885L4.98307 16.3885L4.98014 16.3934C4.37768 17.4025 4.21366 18.5776 4.61895 19.6837C5.01683 20.7903 5.93739 21.5935 7.04387 21.9679C9.4158 22.7749 11.9048 23.1644 14.3886 23.1644C16.8714 23.1644 19.3577 22.7752 21.7262 21.982C22.8375 21.6159 23.6896 20.7728 24.0957 19.6951C24.5075 18.6021 24.3949 17.3952 23.782 16.3879C23.7816 16.3871 23.7811 16.3864 23.7807 16.3857L22.6246 14.4666C22.5593 14.3483 22.472 14.1283 22.3999 13.8617C22.3252 13.5858 22.2931 13.3571 22.2931 13.2416V10.2899C22.2931 7.25558 20.5721 4.62491 18.0644 3.30692C17.2508 2.08074 15.8841 1.33541 14.3536 1.33541C12.8233 1.33541 11.4364 2.11045 10.6241 3.3504C8.16904 4.68876 6.48407 7.29207 6.48407 10.2899V13.2416C6.48407 13.3571 6.45193 13.5857 6.37757 13.8592C6.30464 14.1274 6.21758 14.3415 6.15643 14.4484L4.98308 16.3885Z" stroke="#D5ACA6" stroke-width="1.99569"/>
<path d="M18.6056 23.6846L19.1558 22.1651L17.5508 22.3539C17.3488 22.3777 17.159 22.4014 16.9732 22.4246L16.9719 22.4248L16.9598 22.4263L16.9477 22.4281C16.8226 22.4469 16.7145 22.4553 16.5753 22.4663C16.4918 22.4728 16.3971 22.4802 16.2808 22.4913C15.6525 22.5473 15.0185 22.5804 14.389 22.5804C13.7463 22.5804 13.0992 22.5471 12.4579 22.4909L12.4579 22.4909L12.4535 22.4905C12.2003 22.4694 11.942 22.4374 11.6771 22.4029C11.5875 22.3902 11.5021 22.3805 11.4329 22.3727C11.4275 22.3721 11.4221 22.3715 11.4169 22.3709C11.3384 22.362 11.281 22.3553 11.2274 22.347L9.59896 22.0965L10.1314 23.6557C10.3374 24.259 10.6927 24.8647 11.1915 25.3388C12.0263 26.1941 13.1905 26.6644 14.3657 26.6644C16.3178 26.6644 17.9779 25.4184 18.6056 23.6846Z" stroke="#D5ACA6" stroke-width="1.99569"/>
<rect x="16.8655" y="0.5" width="11" height="11" rx="5.5" fill="#F09E54"/>
<path d="M20.7415 3.64C21.1841 3.64 21.5575 3.75733 21.8615 3.992C22.1655 4.22133 22.3948 4.54133 22.5495 4.952C22.7041 5.35733 22.7815 5.82667 22.7815 6.36C22.7815 6.952 22.7041 7.45067 22.5495 7.856C22.3948 8.256 22.1655 8.56 21.8615 8.768C21.5628 8.976 21.1921 9.08 20.7495 9.08C20.3121 9.08 19.9361 8.97867 19.6215 8.776C19.3068 8.57333 19.0721 8.27733 18.9175 7.888L19.5495 7.552C19.6348 7.82933 19.7735 8.05333 19.9655 8.224C20.1628 8.39467 20.4321 8.48 20.7735 8.48C21.0508 8.48 21.2801 8.42667 21.4615 8.32C21.6481 8.208 21.7948 8.05067 21.9015 7.848C22.0081 7.64 22.0828 7.392 22.1255 7.104C22.1735 6.816 22.1975 6.496 22.1975 6.144C22.1975 6.13333 22.1975 6.12267 22.1975 6.112C22.1975 6.096 22.1975 6.08267 22.1975 6.072H22.1655C22.1015 6.312 21.9895 6.50667 21.8295 6.656C21.6695 6.8 21.4881 6.904 21.2855 6.968C21.0881 7.032 20.8908 7.064 20.6935 7.064C20.3468 7.064 20.0401 6.99733 19.7735 6.864C19.5068 6.72533 19.2988 6.53333 19.1495 6.288C19.0001 6.04267 18.9255 5.752 18.9255 5.416C18.9255 5.05333 18.9975 4.74133 19.1415 4.48C19.2855 4.21333 19.4935 4.008 19.7655 3.864C20.0375 3.71467 20.3628 3.64 20.7415 3.64ZM20.7495 4.256C20.3761 4.256 20.0908 4.36 19.8935 4.568C19.6961 4.77067 19.5975 5.056 19.5975 5.424C19.5975 5.73867 19.7015 5.98933 19.9095 6.176C20.1175 6.35733 20.3975 6.448 20.7495 6.448C20.9788 6.448 21.1788 6.40267 21.3495 6.312C21.5255 6.216 21.6615 6.088 21.7575 5.928C21.8535 5.76267 21.9015 5.57333 21.9015 5.36C21.9015 5.136 21.8535 4.94133 21.7575 4.776C21.6615 4.61067 21.5255 4.48267 21.3495 4.392C21.1788 4.30133 20.9788 4.256 20.7495 4.256Z" fill="#FDF6EC"/>
<path d="M24.8895 4.608V6.772H24.2615V4.608H24.8895ZM25.5895 5.412V5.964H23.5575V5.412H25.5895Z" fill="#FDF6EC"/>
<rect x="16.8655" y="0.5" width="11" height="11" rx="5.5" stroke="#FDF6EC"/>
</svg>
