<svg width="41" height="40" viewBox="0 0 41 40" fill="none" xmlns="http://www.w3.org/2000/svg">
<path d="M20.1922 26C18.5255 26 17.1088 25.4167 15.9421 24.25C14.7755 23.0833 14.1921 21.6667 14.1921 20C14.1921 18.3333 14.7755 16.9167 15.9421 15.75C17.1088 14.5833 18.5255 14 20.1922 14C21.8588 14 23.2755 14.5833 24.4422 15.75C25.6088 16.9167 26.1922 18.3333 26.1922 20C26.1922 21.6667 25.6088 23.0833 24.4422 24.25C23.2755 25.4167 21.8588 26 20.1922 26ZM2.19215 16C1.62548 16 1.15015 15.808 0.766146 15.424C0.382146 15.04 0.190812 14.5653 0.192146 14V6C0.192146 5.43333 0.384146 4.958 0.768146 4.574C1.15215 4.19 1.62681 3.99867 2.19215 4C2.75881 4 3.23415 4.192 3.61815 4.576C4.00215 4.96 4.19348 5.43467 4.19215 6V8C6.09215 5.46667 8.44215 3.5 11.2421 2.1C14.0421 0.7 17.0255 0 20.1922 0C24.5255 0 28.4088 1.25 31.8422 3.75C35.2755 6.25 37.6922 9.5 39.0922 13.5C39.3255 14.1667 39.2502 14.75 38.8662 15.25C38.4822 15.75 37.9075 16 37.1422 16C36.7755 16 36.4088 15.858 36.0422 15.574C35.6755 15.29 35.4088 14.9653 35.2422 14.6C34.1088 11.4333 32.1755 8.87467 29.4422 6.924C26.7088 4.97333 23.6255 3.99867 20.1922 4C17.3255 4 14.6588 4.70867 12.1921 6.126C9.72548 7.54333 7.79215 9.50133 6.39215 12H10.1921C10.7588 12 11.2341 12.192 11.6181 12.576C12.0021 12.96 12.1935 13.4347 12.1921 14C12.1921 14.5667 12.0001 15.042 11.6161 15.426C11.2321 15.81 10.7575 16.0013 10.1921 16H2.19215ZM20.1922 40C15.8588 40 11.9755 38.75 8.54215 36.25C5.10881 33.75 2.69215 30.5 1.29215 26.5C1.05881 25.8333 1.13415 25.25 1.51815 24.75C1.90215 24.25 2.47681 24 3.24215 24C3.60881 24 3.97548 24.142 4.34215 24.426C4.70881 24.71 4.97548 25.0347 5.14215 25.4C6.27548 28.5667 8.20881 31.1253 10.9421 33.076C13.6755 35.0267 16.7588 36.0013 20.1922 36C23.0588 36 25.7255 35.2913 28.1922 33.874C30.6588 32.4567 32.5922 30.4987 33.9922 28H30.1922C29.6255 28 29.1508 27.808 28.7682 27.424C28.3855 27.04 28.1935 26.5653 28.1922 26C28.1922 25.4333 28.3842 24.958 28.7682 24.574C29.1522 24.19 29.6268 23.9987 30.1922 24H38.1922C38.7588 24 39.2342 24.192 39.6182 24.576C40.0022 24.96 40.1935 25.4347 40.1922 26V34C40.1922 34.5667 40.0002 35.042 39.6162 35.426C39.2322 35.81 38.7575 36.0013 38.1922 36C37.6255 36 37.1502 35.808 36.7662 35.424C36.3822 35.04 36.1908 34.5653 36.1922 34V32C34.2922 34.5333 31.9422 36.5 29.1422 37.9C26.3422 39.3 23.3588 40 20.1922 40Z" fill="#AB594E"/>
</svg>
