<svg width="68" height="68" viewBox="0 0 68 68" fill="none" xmlns="http://www.w3.org/2000/svg">
<g filter="url(#filter0_d_9_17419)">
<rect x="4" width="60" height="60" rx="16.245" fill="#F4AFB2" shape-rendering="crispEdges"/>
<g filter="url(#filter1_d_9_17419)">
<path d="M50 30C50 38.8366 42.8366 46 34 46C25.1634 46 18 38.8366 18 30C18 21.1634 25.1634 14 34 14C42.8366 14 50 21.1634 50 30Z" fill="#FDF6EC"/>
<g filter="url(#filter2_i_9_17419)">
<path d="M33.8502 34.0464C31.4236 34.0464 30.8169 37.7797 30.8169 40.2686C30.8169 40.6846 31.433 40.9568 31.8005 40.762C32.2963 40.4993 32.9796 40.2686 33.8502 40.2686C34.7209 40.2686 35.4041 40.4993 35.8999 40.762C36.2675 40.9568 36.8836 40.6846 36.8836 40.2686C36.8836 37.7797 36.2769 34.0464 33.8502 34.0464Z" fill="#F4AFB2"/>
</g>
<path d="M33.8502 34.0464C31.4236 34.0464 30.8169 37.7797 30.8169 40.2686C30.8169 40.6846 31.433 40.9568 31.8005 40.762C32.2963 40.4993 32.9796 40.2686 33.8502 40.2686C34.7209 40.2686 35.4041 40.4993 35.8999 40.762C36.2675 40.9568 36.8836 40.6846 36.8836 40.2686C36.8836 37.7797 36.2769 34.0464 33.8502 34.0464Z" stroke="#F4AFB2" stroke-width="1.01531" stroke-linecap="round"/>
<g filter="url(#filter3_i_9_17419)">
<ellipse cx="28.0588" cy="27.7129" rx="2.03062" ry="3.04593" fill="#F4AFB2"/>
<ellipse cx="40.1749" cy="27.7129" rx="2.03062" ry="3.04593" fill="#F4AFB2"/>
</g>
</g>
</g>
<defs>
<filter id="filter0_d_9_17419" x="0.380565" y="0" width="67.2389" height="67.2389" filterUnits="userSpaceOnUse" color-interpolation-filters="sRGB">
<feFlood flood-opacity="0" result="BackgroundImageFix"/>
<feColorMatrix in="SourceAlpha" type="matrix" values="0 0 0 0 0 0 0 0 0 0 0 0 0 0 0 0 0 0 127 0" result="hardAlpha"/>
<feOffset dy="3.61944"/>
<feGaussianBlur stdDeviation="1.80972"/>
<feComposite in2="hardAlpha" operator="out"/>
<feColorMatrix type="matrix" values="0 0 0 0 0.764706 0 0 0 0 0.94902 0 0 0 0 0.647059 0 0 0 0.15 0"/>
<feBlend mode="normal" in2="BackgroundImageFix" result="effect1_dropShadow_9_17419"/>
<feBlend mode="normal" in="SourceGraphic" in2="effect1_dropShadow_9_17419" result="shape"/>
</filter>
<filter id="filter1_d_9_17419" x="16" y="12" width="36" height="36" filterUnits="userSpaceOnUse" color-interpolation-filters="sRGB">
<feFlood flood-opacity="0" result="BackgroundImageFix"/>
<feColorMatrix in="SourceAlpha" type="matrix" values="0 0 0 0 0 0 0 0 0 0 0 0 0 0 0 0 0 0 127 0" result="hardAlpha"/>
<feOffset/>
<feGaussianBlur stdDeviation="1"/>
<feComposite in2="hardAlpha" operator="out"/>
<feColorMatrix type="matrix" values="0 0 0 0 0 0 0 0 0 0 0 0 0 0 0 0 0 0 0.1 0"/>
<feBlend mode="normal" in2="BackgroundImageFix" result="effect1_dropShadow_9_17419"/>
<feBlend mode="normal" in="SourceGraphic" in2="effect1_dropShadow_9_17419" result="shape"/>
</filter>
<filter id="filter2_i_9_17419" x="30.3093" y="33.5388" width="7.08197" height="7.79517" filterUnits="userSpaceOnUse" color-interpolation-filters="sRGB">
<feFlood flood-opacity="0" result="BackgroundImageFix"/>
<feBlend mode="normal" in="SourceGraphic" in2="BackgroundImageFix" result="shape"/>
<feColorMatrix in="SourceAlpha" type="matrix" values="0 0 0 0 0 0 0 0 0 0 0 0 0 0 0 0 0 0 127 0" result="hardAlpha"/>
<feOffset/>
<feGaussianBlur stdDeviation="1"/>
<feComposite in2="hardAlpha" operator="arithmetic" k2="-1" k3="1"/>
<feColorMatrix type="matrix" values="0 0 0 0 0 0 0 0 0 0 0 0 0 0 0 0 0 0 0.1 0"/>
<feBlend mode="normal" in2="shape" result="effect1_innerShadow_9_17419"/>
</filter>
<filter id="filter3_i_9_17419" x="26.0282" y="24.667" width="16.1773" height="6.0918" filterUnits="userSpaceOnUse" color-interpolation-filters="sRGB">
<feFlood flood-opacity="0" result="BackgroundImageFix"/>
<feBlend mode="normal" in="SourceGraphic" in2="BackgroundImageFix" result="shape"/>
<feColorMatrix in="SourceAlpha" type="matrix" values="0 0 0 0 0 0 0 0 0 0 0 0 0 0 0 0 0 0 127 0" result="hardAlpha"/>
<feOffset/>
<feGaussianBlur stdDeviation="1"/>
<feComposite in2="hardAlpha" operator="arithmetic" k2="-1" k3="1"/>
<feColorMatrix type="matrix" values="0 0 0 0 0 0 0 0 0 0 0 0 0 0 0 0 0 0 0.1 0"/>
<feBlend mode="normal" in2="shape" result="effect1_innerShadow_9_17419"/>
</filter>
</defs>
</svg>
