<svg width="88" height="88" viewBox="0 0 88 88" fill="none" xmlns="http://www.w3.org/2000/svg">
<path d="M88 44C88 68.3005 68.3005 88 44 88C19.6995 88 0 68.3005 0 44C0 19.6995 19.6995 0 44 0C68.3005 0 88 19.6995 88 44Z" fill="#F4AFB2"/>
<g filter="url(#filter0_i_40_72)">
<path d="M43.45 55C36.85 55 35.2 65.45 35.2 72.4167C35.2 73.5637 36.9191 74.3121 37.9292 73.7685C39.2731 73.0454 41.1134 72.4167 43.45 72.4167C45.7865 72.4167 47.6268 73.0454 48.9707 73.7685C49.9808 74.3121 51.7 73.5637 51.7 72.4167C51.7 65.45 50.05 55 43.45 55Z" fill="white"/>
</g>
<path d="M43.45 55C36.85 55 35.2 65.45 35.2 72.4167C35.2 73.5637 36.9191 74.3121 37.9292 73.7685C39.2731 73.0454 41.1134 72.4167 43.45 72.4167C45.7865 72.4167 47.6268 73.0454 48.9707 73.7685C49.9808 74.3121 51.7 73.5637 51.7 72.4167C51.7 65.45 50.05 55 43.45 55Z" stroke="white" stroke-width="2.03062" stroke-linecap="round"/>
<ellipse cx="31.2225" cy="37.95" rx="4.46737" ry="6.70105" fill="white"/>
<ellipse cx="57.8778" cy="37.95" rx="4.46737" ry="6.70105" fill="white"/>
<defs>
<filter id="filter0_i_40_72" x="34.1846" y="53.9847" width="18.5308" height="20.9802" filterUnits="userSpaceOnUse" color-interpolation-filters="sRGB">
<feFlood flood-opacity="0" result="BackgroundImageFix"/>
<feBlend mode="normal" in="SourceGraphic" in2="BackgroundImageFix" result="shape"/>
<feColorMatrix in="SourceAlpha" type="matrix" values="0 0 0 0 0 0 0 0 0 0 0 0 0 0 0 0 0 0 127 0" result="hardAlpha"/>
<feOffset/>
<feGaussianBlur stdDeviation="2"/>
<feComposite in2="hardAlpha" operator="arithmetic" k2="-1" k3="1"/>
<feColorMatrix type="matrix" values="0 0 0 0 0 0 0 0 0 0 0 0 0 0 0 0 0 0 0.1 0"/>
<feBlend mode="normal" in2="shape" result="effect1_innerShadow_40_72"/>
</filter>
</defs>
</svg>
