<svg width="95" height="95" viewBox="0 0 95 95" fill="none" xmlns="http://www.w3.org/2000/svg">
<g filter="url(#filter0_d_40_77)">
<path d="M91 47.5C91 71.5244 71.5244 91 47.5 91C23.4756 91 4 71.5244 4 47.5C4 23.4756 23.4756 4 47.5 4C71.5244 4 91 23.4756 91 47.5Z" fill="#75A1D9"/>
</g>
<g filter="url(#filter1_i_40_77)">
<path d="M47.5 62.6375C40.714 62.6375 33.3625 65.0843 33.3625 69.9781C33.3625 71.203 34.5361 72.0966 35.7251 71.802C38.6505 71.077 43.7102 69.9781 47.5 69.9781C51.2899 69.9781 56.3496 71.077 59.275 71.802C60.464 72.0966 61.6375 71.203 61.6375 69.9781C61.6375 65.0843 54.286 62.6375 47.5 62.6375Z" fill="white"/>
</g>
<path d="M47.5 62.6375C40.714 62.6375 33.3625 65.0843 33.3625 69.9781C33.3625 71.203 34.5361 72.0966 35.7251 71.802C38.6505 71.077 43.7102 69.9781 47.5 69.9781C51.2899 69.9781 56.3496 71.077 59.275 71.802C60.464 72.0966 61.6375 71.203 61.6375 69.9781C61.6375 65.0843 54.286 62.6375 47.5 62.6375Z" stroke="white" stroke-width="2.03062" stroke-linecap="round"/>
<path d="M72.5973 34.8757C66.5999 35.9274 61.2669 34.4999 56.5993 30.589" stroke="white" stroke-width="4.06125" stroke-linecap="round"/>
<path d="M38.8561 30.5891C34.1882 34.4985 28.8559 35.9288 22.8582 34.8757" stroke="white" stroke-width="4.06124" stroke-linecap="round"/>
<path d="M41.5224 46.6991C40.6517 49.9489 38.1894 52.1128 36.0229 51.5322C33.8564 50.9517 32.8059 47.8466 33.6767 44.5968C34.5475 41.347 37.0097 39.1831 39.1763 39.7637C41.3428 40.3442 42.3932 43.4493 41.5224 46.6991Z" fill="white"/>
<path d="M61.9979 44.5969C62.8686 47.8467 61.8182 50.9518 59.6517 51.5323C57.4851 52.1128 55.0229 49.9489 54.1521 46.6991C53.2813 43.4493 54.3318 40.3442 56.4983 39.7637C58.6648 39.1832 61.1271 41.3471 61.9979 44.5969Z" fill="white"/>
<defs>
<filter id="filter0_d_40_77" x="0" y="0" width="95" height="95" filterUnits="userSpaceOnUse" color-interpolation-filters="sRGB">
<feFlood flood-opacity="0" result="BackgroundImageFix"/>
<feColorMatrix in="SourceAlpha" type="matrix" values="0 0 0 0 0 0 0 0 0 0 0 0 0 0 0 0 0 0 127 0" result="hardAlpha"/>
<feOffset/>
<feGaussianBlur stdDeviation="2"/>
<feComposite in2="hardAlpha" operator="out"/>
<feColorMatrix type="matrix" values="0 0 0 0 0 0 0 0 0 0 0 0 0 0 0 0 0 0 0.1 0"/>
<feBlend mode="normal" in2="BackgroundImageFix" result="effect1_dropShadow_40_77"/>
<feBlend mode="normal" in="SourceGraphic" in2="effect1_dropShadow_40_77" result="shape"/>
</filter>
<filter id="filter1_i_40_77" x="32.3472" y="61.6222" width="30.3057" height="11.2516" filterUnits="userSpaceOnUse" color-interpolation-filters="sRGB">
<feFlood flood-opacity="0" result="BackgroundImageFix"/>
<feBlend mode="normal" in="SourceGraphic" in2="BackgroundImageFix" result="shape"/>
<feColorMatrix in="SourceAlpha" type="matrix" values="0 0 0 0 0 0 0 0 0 0 0 0 0 0 0 0 0 0 127 0" result="hardAlpha"/>
<feOffset/>
<feGaussianBlur stdDeviation="2"/>
<feComposite in2="hardAlpha" operator="arithmetic" k2="-1" k3="1"/>
<feColorMatrix type="matrix" values="0 0 0 0 0 0 0 0 0 0 0 0 0 0 0 0 0 0 0.1 0"/>
<feBlend mode="normal" in2="shape" result="effect1_innerShadow_40_77"/>
</filter>
</defs>
</svg>
