<svg width="25" height="29" viewBox="0 0 25 29" fill="none" xmlns="http://www.w3.org/2000/svg">
<path d="M15.6973 2.04618C14.1458 0.478751 11.5759 0.478749 10.0244 2.04617L2.44621 9.70199C2.01098 10.1417 1.71852 10.6975 1.60567 11.2995C0.685317 16.209 0.617381 21.235 1.40471 26.1666L1.68346 27.9126C1.77151 28.464 2.25708 28.8706 2.82769 28.8706H8.123C8.55911 28.8706 8.91264 28.5248 8.91264 28.0982V17.2843H16.8091V28.0982C16.8091 28.5248 17.1626 28.8706 17.5988 28.8706H22.894C23.4646 28.8706 23.9502 28.464 24.0382 27.9126L24.317 26.1666C25.1043 21.235 25.0364 16.209 24.116 11.2995C24.0032 10.6975 23.7107 10.1417 23.2755 9.70199L15.6973 2.04618Z" fill="#BCB4E6"/>
</svg>
