<svg width="24" height="39" viewBox="0 0 24 39" fill="none" xmlns="http://www.w3.org/2000/svg">
<path fill-rule="evenodd" clip-rule="evenodd" d="M2.22177e-05 1.20786C2.22177e-05 3.0751 0.0600545 3.86464 0.289297 5.01331C0.994599 8.54721 3.05278 10.8995 6.43203 12.0337C7.49851 12.3917 8.81075 12.654 9.99798 12.7466L10.0757 12.7527L10.0869 20.5279L10.098 28.3031L10.1483 28.4829C10.3939 29.36 11.1242 29.9323 11.9976 29.9323C12.871 29.9323 13.6012 29.36 13.8468 28.4829L13.8972 28.3031L13.9083 22.1346L13.9194 15.9662L14.1083 15.9496C15.2342 15.851 16.4928 15.6002 17.4854 15.2766C18.4951 14.9473 19.5592 14.4089 20.3383 13.8329C22.3569 12.3406 23.569 10.0192 23.8944 7.02241C23.9681 6.34374 23.9771 6.11878 23.9884 4.69097L24 3.21346L22.4923 3.21359C20.3073 3.21379 19.4426 3.25777 18.263 3.4288C16.3265 3.70954 14.666 4.33428 13.4424 5.24238C13.2961 5.35099 13.1686 5.43719 13.1591 5.43393C13.1496 5.43065 13.0915 5.31146 13.03 5.16904C11.8397 2.41088 9.39506 0.751634 5.73218 0.215751C4.58459 0.0478648 3.6524 0.000719095 1.47193 0.000292132L0 0L2.22177e-05 1.20786ZM4.58796 3.96812C6.86886 4.18994 8.29893 4.83598 9.13716 6.02332C9.56589 6.6306 9.88416 7.54133 10.0073 8.51323C10.056 8.89804 10.0559 8.8999 9.98132 8.88763C9.94773 8.8821 9.78525 8.86139 9.62028 8.84163C7.98283 8.64537 6.69285 8.16849 5.77474 7.42003C5.55997 7.24493 5.17635 6.84343 5.01488 6.62473C4.50402 5.9328 4.14496 5.03117 3.96704 3.99361L3.95247 3.9086L4.10357 3.92215C4.18669 3.92961 4.40467 3.9503 4.58796 3.96812ZM20.0404 7.1323C20.0404 7.17909 19.9553 7.58005 19.892 7.8314C19.5065 9.36188 18.7257 10.4297 17.4727 11.14C16.6984 11.5789 15.6745 11.8857 14.459 12.043C13.9114 12.1139 13.9527 12.1145 13.9531 12.0347C13.9536 11.9407 14.0308 11.3991 14.075 11.1797C14.2212 10.4543 14.4659 9.83282 14.8135 9.30356C15.1222 8.83354 15.6254 8.37171 16.1761 8.05285C16.7593 7.71519 17.5954 7.44538 18.5296 7.29338C19.0588 7.20729 20.0404 7.10261 20.0404 7.1323ZM8.16502 17.7274C6.69001 18.296 5.41742 19.1278 4.3104 20.2471C2.89151 21.6816 1.91121 23.438 1.43318 25.4022C0.94221 27.4196 1.03488 29.5744 1.69717 31.5395C2.30687 33.3485 3.35455 34.9488 4.75586 36.2115C6.48411 37.7687 8.54265 38.6906 10.8903 38.9588C11.3715 39.0137 12.6237 39.0137 13.1048 38.9588C15.4276 38.6935 17.4227 37.8093 19.1762 36.2682C19.7033 35.8049 20.3101 35.1388 20.7401 34.5513C23.1514 31.257 23.5506 26.872 21.7733 23.2021C21.4223 22.4773 20.9962 21.7935 20.5227 21.1953C19.2308 19.5629 17.617 18.389 15.6691 17.6647L15.4858 17.5965V19.7532C15.4858 21.1256 15.4936 21.9099 15.5072 21.9099C15.5416 21.9099 16.1679 22.3415 16.3745 22.5076C16.618 22.7034 17.2565 23.3492 17.4499 23.5953C18.275 24.6455 18.7819 25.8661 18.9437 27.1927C18.9891 27.5649 18.9948 28.3777 18.9545 28.7413C18.7058 30.9842 17.4739 32.9279 15.5667 34.0863C14.0184 35.0266 12.1503 35.3146 10.3659 34.8882C8.68669 34.4869 7.1582 33.4056 6.18735 31.9323C5.54493 30.9574 5.17196 29.9169 5.03947 28.7301C5.00012 28.3776 5.00648 27.5612 5.05145 27.1927C5.2133 25.8661 5.72018 24.6455 6.5453 23.5953C6.73868 23.3492 7.37713 22.7034 7.62068 22.5076C7.8018 22.362 8.42854 21.926 8.48327 21.9075C8.5034 21.9007 8.50828 21.3916 8.50395 19.7488L8.49828 17.599L8.16502 17.7274Z" fill="#BAD0EC"/>
</svg>
