<svg width="41" height="40" viewBox="0 0 41 40" fill="none" xmlns="http://www.w3.org/2000/svg">
<path d="M20.1919 26C18.5252 26 17.1086 25.4167 15.9419 24.25C14.7752 23.0833 14.1919 21.6667 14.1919 20C14.1919 18.3333 14.7752 16.9167 15.9419 15.75C17.1086 14.5833 18.5252 14 20.1919 14C21.8586 14 23.2752 14.5833 24.4419 15.75C25.6086 16.9167 26.1919 18.3333 26.1919 20C26.1919 21.6667 25.6086 23.0833 24.4419 24.25C23.2752 25.4167 21.8586 26 20.1919 26ZM2.1919 16C1.62524 16 1.1499 15.808 0.765901 15.424C0.381901 15.04 0.190568 14.5653 0.191901 14V6C0.191901 5.43333 0.383902 4.958 0.767902 4.574C1.1519 4.19 1.62657 3.99867 2.1919 4C2.75857 4 3.2339 4.192 3.6179 4.576C4.0019 4.96 4.19324 5.43467 4.1919 6V8C6.0919 5.46667 8.4419 3.5 11.2419 2.1C14.0419 0.7 17.0252 0 20.1919 0C24.5252 0 28.4086 1.25 31.8419 3.75C35.2752 6.25 37.6919 9.5 39.0919 13.5C39.3252 14.1667 39.2499 14.75 38.8659 15.25C38.4819 15.75 37.9072 16 37.1419 16C36.7752 16 36.4086 15.858 36.0419 15.574C35.6752 15.29 35.4086 14.9653 35.2419 14.6C34.1086 11.4333 32.1752 8.87467 29.4419 6.924C26.7086 4.97333 23.6252 3.99867 20.1919 4C17.3252 4 14.6586 4.70867 12.1919 6.126C9.72524 7.54333 7.7919 9.50133 6.3919 12H10.1919C10.7586 12 11.2339 12.192 11.6179 12.576C12.0019 12.96 12.1932 13.4347 12.1919 14C12.1919 14.5667 11.9999 15.042 11.6159 15.426C11.2319 15.81 10.7572 16.0013 10.1919 16H2.1919ZM20.1919 40C15.8586 40 11.9752 38.75 8.5419 36.25C5.10857 33.75 2.6919 30.5 1.2919 26.5C1.05857 25.8333 1.1339 25.25 1.5179 24.75C1.9019 24.25 2.47657 24 3.2419 24C3.60857 24 3.97524 24.142 4.3419 24.426C4.70857 24.71 4.97524 25.0347 5.1419 25.4C6.27524 28.5667 8.20857 31.1253 10.9419 33.076C13.6752 35.0267 16.7586 36.0013 20.1919 36C23.0586 36 25.7252 35.2913 28.1919 33.874C30.6586 32.4567 32.5919 30.4987 33.9919 28H30.1919C29.6252 28 29.1506 27.808 28.7679 27.424C28.3852 27.04 28.1932 26.5653 28.1919 26C28.1919 25.4333 28.3839 24.958 28.7679 24.574C29.1519 24.19 29.6266 23.9987 30.1919 24H38.1919C38.7586 24 39.2339 24.192 39.6179 24.576C40.0019 24.96 40.1932 25.4347 40.1919 26V34C40.1919 34.5667 39.9999 35.042 39.6159 35.426C39.2319 35.81 38.7572 36.0013 38.1919 36C37.6252 36 37.1499 35.808 36.7659 35.424C36.3819 35.04 36.1906 34.5653 36.1919 34V32C34.2919 34.5333 31.9419 36.5 29.1419 37.9C26.3419 39.3 23.3586 40 20.1919 40Z" fill="#75A1D9"/>
</svg>
