<svg width="46" height="37" viewBox="0 0 46 37" fill="none" xmlns="http://www.w3.org/2000/svg">
<path d="M5.0661 16.9746C5.01613 17.6926 4.43739 18.2781 3.71759 18.2781H1.385C0.227982 18.2781 -0.35535 19.6735 0.457422 20.4969L6.34449 26.4615C6.85481 26.9785 7.68934 26.9785 8.19965 26.4615L14.0867 20.4969C14.8995 19.6735 14.3162 18.2781 13.1591 18.2781H10.8265C10.1068 18.2781 9.5168 17.6928 9.58378 16.9761C10.2324 10.0358 16.0123 4.59336 23.0303 4.59336C24.9548 4.59336 26.7987 5.00189 28.4527 5.74979C28.9837 5.98989 29.616 5.90371 30.0254 5.48897L31.4916 4.00349C32.0732 3.41421 31.9653 2.43649 31.2317 2.05252C28.7775 0.767914 25.9908 0.0317802 23.0303 0.0317802C13.5127 0.0317802 5.72527 7.50243 5.0661 16.9746ZM35.234 18.2781C35.9538 18.2781 36.5437 18.8634 36.4767 19.5801C35.8281 26.5204 30.0482 31.9628 23.0303 31.9628C21.1057 31.9628 19.2618 31.5543 17.6078 30.8064C17.0768 30.5663 16.4445 30.6525 16.0351 31.0672L14.569 32.5527C13.9873 33.142 14.0952 34.1197 14.8288 34.5037C17.283 35.7883 20.0698 36.5244 23.0303 36.5244C32.5478 36.5244 40.3352 29.0538 40.9944 19.5816C41.0444 18.8636 41.6231 18.2781 42.3429 18.2781H44.6755C45.8325 18.2781 46.4159 16.8827 45.6031 16.0593L39.716 10.0947C39.2057 9.57769 38.3712 9.57769 37.8609 10.0947L31.9738 16.0593C31.161 16.8827 31.7443 18.2781 32.9014 18.2781H35.234Z" fill="#F09E54"/>
</svg>
