<svg width="29" height="28" viewBox="0 0 29 28" fill="none" xmlns="http://www.w3.org/2000/svg">
<path d="M4.98284 16.3885L4.98282 16.3885L4.9799 16.3934C4.37743 17.4025 4.21342 18.5776 4.6187 19.6837C5.01659 20.7903 5.93714 21.5935 7.04362 21.9679C9.41555 22.7749 11.9045 23.1644 14.3883 23.1644C16.8711 23.1644 19.3575 22.7752 21.7259 21.982C22.8373 21.6159 23.6893 20.7728 24.0954 19.6951C24.5073 18.6021 24.3947 17.3952 23.7818 16.3879C23.7813 16.3871 23.7809 16.3864 23.7804 16.3857L22.6244 14.4666C22.5591 14.3483 22.4718 14.1283 22.3997 13.8617C22.325 13.5858 22.2928 13.3571 22.2928 13.2416V10.2899C22.2928 7.25558 20.5718 4.62491 18.0642 3.30692C17.2505 2.08074 15.8839 1.33541 14.3533 1.33541C12.8231 1.33541 11.4362 2.11045 10.6239 3.3504C8.16879 4.68876 6.48383 7.29207 6.48383 10.2899V13.2416C6.48383 13.3571 6.45168 13.5857 6.37732 13.8592C6.3044 14.1274 6.21734 14.3415 6.15618 14.4484L4.98284 16.3885Z" stroke="#A9CEB6" stroke-width="1.99569"/>
<path d="M18.6051 23.6846L19.1553 22.1651L17.5503 22.3539C17.3483 22.3777 17.1586 22.4014 16.9727 22.4246L16.9714 22.4248L16.9593 22.4263L16.9472 22.4281C16.8221 22.4469 16.7141 22.4553 16.5748 22.4663C16.4913 22.4728 16.3966 22.4802 16.2803 22.4913C15.652 22.5473 15.018 22.5804 14.3885 22.5804C13.7459 22.5804 13.0987 22.5471 12.4574 22.4909L12.4574 22.4909L12.4531 22.4905C12.1998 22.4694 11.9415 22.4374 11.6766 22.4029C11.587 22.3902 11.5016 22.3805 11.4325 22.3727C11.427 22.3721 11.4216 22.3715 11.4164 22.3709C11.3379 22.362 11.2805 22.3553 11.2269 22.347L9.59847 22.0965L10.1309 23.6557C10.3369 24.259 10.6922 24.8647 11.191 25.3388C12.0259 26.1941 13.19 26.6644 14.3652 26.6644C16.3173 26.6644 17.9774 25.4184 18.6051 23.6846Z" stroke="#A9CEB6" stroke-width="1.99569"/>
<rect x="16.8652" y="0.5" width="11" height="11" rx="5.5" fill="#F09E54"/>
<path d="M20.7412 3.64C21.1839 3.64 21.5572 3.75733 21.8612 3.992C22.1652 4.22133 22.3946 4.54133 22.5492 4.952C22.7039 5.35733 22.7812 5.82667 22.7812 6.36C22.7812 6.952 22.7039 7.45067 22.5492 7.856C22.3946 8.256 22.1652 8.56 21.8612 8.768C21.5626 8.976 21.1919 9.08 20.7492 9.08C20.3119 9.08 19.9359 8.97867 19.6212 8.776C19.3066 8.57333 19.0719 8.27733 18.9172 7.888L19.5492 7.552C19.6346 7.82933 19.7732 8.05333 19.9652 8.224C20.1626 8.39467 20.4319 8.48 20.7732 8.48C21.0506 8.48 21.2799 8.42667 21.4612 8.32C21.6479 8.208 21.7946 8.05067 21.9012 7.848C22.0079 7.64 22.0826 7.392 22.1252 7.104C22.1732 6.816 22.1972 6.496 22.1972 6.144C22.1972 6.13333 22.1972 6.12267 22.1972 6.112C22.1972 6.096 22.1972 6.08267 22.1972 6.072H22.1652C22.1012 6.312 21.9892 6.50667 21.8292 6.656C21.6692 6.8 21.4879 6.904 21.2852 6.968C21.0879 7.032 20.8906 7.064 20.6932 7.064C20.3466 7.064 20.0399 6.99733 19.7732 6.864C19.5066 6.72533 19.2986 6.53333 19.1492 6.288C18.9999 6.04267 18.9252 5.752 18.9252 5.416C18.9252 5.05333 18.9972 4.74133 19.1412 4.48C19.2852 4.21333 19.4932 4.008 19.7652 3.864C20.0372 3.71467 20.3626 3.64 20.7412 3.64ZM20.7492 4.256C20.3759 4.256 20.0906 4.36 19.8932 4.568C19.6959 4.77067 19.5972 5.056 19.5972 5.424C19.5972 5.73867 19.7012 5.98933 19.9092 6.176C20.1172 6.35733 20.3972 6.448 20.7492 6.448C20.9786 6.448 21.1786 6.40267 21.3492 6.312C21.5252 6.216 21.6612 6.088 21.7572 5.928C21.8532 5.76267 21.9012 5.57333 21.9012 5.36C21.9012 5.136 21.8532 4.94133 21.7572 4.776C21.6612 4.61067 21.5252 4.48267 21.3492 4.392C21.1786 4.30133 20.9786 4.256 20.7492 4.256Z" fill="#FDF6EC"/>
<path d="M24.8892 4.608V6.772H24.2612V4.608H24.8892ZM25.5892 5.412V5.964H23.5572V5.412H25.5892Z" fill="#FDF6EC"/>
<rect x="16.8652" y="0.5" width="11" height="11" rx="5.5" stroke="#FDF6EC"/>
</svg>
