<svg width="25" height="29" viewBox="0 0 25 29" fill="none" xmlns="http://www.w3.org/2000/svg">
<path fill-rule="evenodd" clip-rule="evenodd" d="M2.49851 12.087V19.437C2.49851 23.4962 5.98867 26.787 10.294 26.787C14.5993 26.787 18.0894 23.4962 18.0894 19.437V12.087H2.49851ZM0.27124 11.154C0.27124 10.5095 0.82544 9.98696 1.50901 9.98696H19.0789C19.7625 9.98696 20.3167 10.5095 20.3167 11.154V19.437C20.3167 24.656 15.8294 28.887 10.294 28.887C4.75858 28.887 0.27124 24.656 0.27124 19.437V11.154Z" fill="#F4E39E"/>
<path fill-rule="evenodd" clip-rule="evenodd" d="M18.0894 11.037C18.0894 10.4571 18.588 9.98696 19.2031 9.98696C22.2783 9.98696 24.7712 12.3375 24.7712 15.237C24.7712 18.1365 22.2783 20.487 19.2031 20.487C18.588 20.487 18.0894 20.0169 18.0894 19.437C18.0894 18.8571 18.588 18.387 19.2031 18.387C21.0482 18.387 22.544 16.9767 22.544 15.237C22.544 13.4973 21.0482 12.087 19.2031 12.087C18.588 12.087 18.0894 11.6169 18.0894 11.037Z" fill="#F4E39E"/>
<path fill-rule="evenodd" clip-rule="evenodd" d="M1.38488 2.98696C1.99992 2.98696 2.49851 3.45706 2.49851 4.03696V6.13696C2.49851 6.71686 1.99992 7.18696 1.38488 7.18696C0.769832 7.18696 0.27124 6.71686 0.27124 6.13696V4.03696C0.27124 3.45706 0.769832 2.98696 1.38488 2.98696Z" fill="#F4E39E"/>
<path fill-rule="evenodd" clip-rule="evenodd" d="M19.2031 2.98696C19.8181 2.98696 20.3167 3.45706 20.3167 4.03696V6.13696C20.3167 6.71686 19.8181 7.18696 19.2031 7.18696C18.588 7.18696 18.0894 6.71686 18.0894 6.13696V4.03696C18.0894 3.45706 18.588 2.98696 19.2031 2.98696Z" fill="#F4E39E"/>
<path fill-rule="evenodd" clip-rule="evenodd" d="M10.294 0.886963C10.909 0.886963 11.4076 1.35706 11.4076 1.93696V6.13696C11.4076 6.71686 10.909 7.18696 10.294 7.18696C9.67892 7.18696 9.18033 6.71686 9.18033 6.13696V1.93696C9.18033 1.35706 9.67892 0.886963 10.294 0.886963Z" fill="#F4E39E"/>
</svg>
