<svg width="29" height="28" viewBox="0 0 29 28" fill="none" xmlns="http://www.w3.org/2000/svg">
<path d="M4.98308 16.3885L4.98307 16.3885L4.98014 16.3934C4.37768 17.4025 4.21366 18.5776 4.61895 19.6837C5.01683 20.7903 5.93739 21.5935 7.04387 21.9679C9.4158 22.7749 11.9048 23.1644 14.3886 23.1644C16.8714 23.1644 19.3577 22.7752 21.7262 21.982C22.8375 21.6159 23.6896 20.7728 24.0957 19.6951C24.5075 18.6021 24.3949 17.3952 23.782 16.3879C23.7816 16.3871 23.7811 16.3864 23.7807 16.3857L22.6246 14.4666C22.5593 14.3483 22.472 14.1283 22.3999 13.8617C22.3252 13.5858 22.2931 13.3571 22.2931 13.2416V10.2899C22.2931 7.25558 20.5721 4.62491 18.0644 3.30692C17.2508 2.08074 15.8841 1.33541 14.3536 1.33541C12.8233 1.33541 11.4364 2.11045 10.6241 3.3504C8.16904 4.68876 6.48407 7.29207 6.48407 10.2899V13.2416C6.48407 13.3571 6.45193 13.5857 6.37757 13.8592C6.30464 14.1274 6.21758 14.3415 6.15643 14.4484L4.98308 16.3885Z" stroke="#F4E39E" stroke-width="1.99569"/>
<path d="M18.6056 23.6846L19.1558 22.1651L17.5508 22.3539C17.3488 22.3777 17.159 22.4014 16.9732 22.4246L16.9719 22.4248L16.9598 22.4263L16.9477 22.4281C16.8226 22.4469 16.7145 22.4553 16.5753 22.4663C16.4918 22.4728 16.3971 22.4802 16.2808 22.4913C15.6525 22.5473 15.0185 22.5804 14.389 22.5804C13.7463 22.5804 13.0992 22.5471 12.4579 22.4909L12.4579 22.4909L12.4535 22.4905C12.2003 22.4694 11.942 22.4374 11.6771 22.4029C11.5875 22.3902 11.5021 22.3805 11.4329 22.3727C11.4275 22.3721 11.4221 22.3715 11.4169 22.3709C11.3384 22.362 11.281 22.3553 11.2274 22.347L9.59896 22.0965L10.1314 23.6557C10.3374 24.259 10.6927 24.8647 11.1915 25.3388C12.0263 26.1941 13.1905 26.6644 14.3657 26.6644C16.3178 26.6644 17.9779 25.4184 18.6056 23.6846Z" stroke="#F4E39E" stroke-width="1.99569"/>
</svg>
