<svg width="29" height="28" viewBox="0 0 29 28" fill="none" xmlns="http://www.w3.org/2000/svg">
<path d="M4.3999 21.8747C3.92157 21.8747 3.5249 21.478 3.5249 20.9997V8.16634C3.5249 3.02134 5.08824 1.45801 10.2332 1.45801H18.3999C23.5449 1.45801 25.1082 3.02134 25.1082 8.16634V19.833C25.1082 20.0197 25.1082 20.1947 25.0966 20.3813C25.0616 20.8597 24.6299 21.233 24.1632 21.198C23.6849 21.163 23.3116 20.743 23.3466 20.2647C23.3582 20.1247 23.3582 19.973 23.3582 19.833V8.16634C23.3582 4.00134 22.5766 3.20801 18.3999 3.20801H10.2332C6.05657 3.20801 5.2749 4.00134 5.2749 8.16634V20.9997C5.2749 21.478 4.87824 21.8747 4.3999 21.8747Z" fill="#F7CEA9"/>
<path d="M20.1499 26.5417H8.48324C5.75324 26.5417 3.5249 24.3133 3.5249 21.5833V20.825C3.5249 18.5033 5.4149 16.625 7.7249 16.625H24.2332C24.7116 16.625 25.1082 17.0217 25.1082 17.5V21.5833C25.1082 24.3133 22.8799 26.5417 20.1499 26.5417ZM7.7249 18.375C6.37157 18.375 5.2749 19.4717 5.2749 20.825V21.5833C5.2749 23.3567 6.7099 24.7917 8.48324 24.7917H20.1499C21.9232 24.7917 23.3582 23.3567 23.3582 21.5833V18.375H7.7249Z" fill="#F7CEA9"/>
<path d="M18.9832 9.04199H9.6499C9.17157 9.04199 8.7749 8.64533 8.7749 8.16699C8.7749 7.68866 9.17157 7.29199 9.6499 7.29199H18.9832C19.4616 7.29199 19.8582 7.68866 19.8582 8.16699C19.8582 8.64533 19.4616 9.04199 18.9832 9.04199Z" fill="#F7CEA9"/>
<path d="M15.4832 13.125H9.6499C9.17157 13.125 8.7749 12.7283 8.7749 12.25C8.7749 11.7717 9.17157 11.375 9.6499 11.375H15.4832C15.9616 11.375 16.3582 11.7717 16.3582 12.25C16.3582 12.7283 15.9616 13.125 15.4832 13.125Z" fill="#F7CEA9"/>
</svg>
