<svg width="20" height="21" viewBox="0 0 20 21" fill="none" xmlns="http://www.w3.org/2000/svg">
<rect y="0.561523" width="20" height="20" rx="9.99999" fill="#F09E54"/>
<path d="M13.75 6.47819H12V5.89485C12 5.27602 11.7542 4.68252 11.3166 4.24494C10.879 3.80736 10.2855 3.56152 9.66666 3.56152C9.04783 3.56152 8.45433 3.80736 8.01675 4.24494C7.57916 4.68252 7.33333 5.27602 7.33333 5.89485V6.47819H5.58333C5.42862 6.47819 5.28025 6.53965 5.17085 6.64904C5.06146 6.75844 5 6.90681 5 7.06152V13.4782C5 13.9423 5.18437 14.3874 5.51256 14.7156C5.84075 15.0438 6.28587 15.2282 6.75 15.2282C6.75 15.2282 9.33333 15.2282 9.66666 15.2282C10 15.2282 10.3333 15.2282 10.3333 14.6282L13.6667 14.5615L13.7333 11.5615C14.3333 11.5615 14.3333 11.2282 14.3333 10.8949C14.3333 10.5615 14.3333 7.06152 14.3333 7.06152C14.3333 6.90681 14.2719 6.75844 14.1625 6.64904C14.0531 6.53965 13.9047 6.47819 13.75 6.47819ZM8.5 5.89485C8.5 5.58544 8.62291 5.28869 8.84171 5.0699C9.0605 4.85111 9.35724 4.72819 9.66666 4.72819C9.97608 4.72819 10.2728 4.85111 10.4916 5.0699C10.7104 5.28869 10.8333 5.58544 10.8333 5.89485V6.47819H8.5V5.89485ZM13.1667 10.8949C13.1667 11.2282 13.1667 11.5615 13.7333 11.5615L13.6667 14.5615L10.3333 14.6282C10.3333 14.0615 10 14.0615 9.66666 14.0615C9.33333 14.0615 6.75 14.0615 6.75 14.0615C6.59529 14.0615 6.44692 14.0001 6.33752 13.8907C6.22812 13.7813 6.16667 13.6329 6.16667 13.4782V7.64485H7.33333V8.22819C7.33333 8.3829 7.39479 8.53127 7.50419 8.64066C7.61358 8.75006 7.76196 8.81152 7.91666 8.81152C8.07137 8.81152 8.21975 8.75006 8.32914 8.64066C8.43854 8.53127 8.5 8.3829 8.5 8.22819V7.64485H10.8333V8.22819C10.8333 8.3829 10.8948 8.53127 11.0042 8.64066C11.1136 8.75006 11.262 8.81152 11.4167 8.81152C11.5714 8.81152 11.7197 8.75006 11.8291 8.64066C11.9385 8.53127 12 8.3829 12 8.22819V7.64485H13.1667C13.1667 7.64485 13.1667 10.5615 13.1667 10.8949Z" fill="#FDF6EC"/>
<path d="M10.9995 14.6285C10.9995 14.2971 11.298 14.0285 11.6662 14.0285L15.6662 14.0285C16.0344 14.0285 16.3328 14.2971 16.3328 14.6285C16.3328 14.9599 16.0344 15.2285 15.6662 15.2285H11.6662C11.298 15.2285 10.9995 14.9599 10.9995 14.6285Z" fill="#FDF6EC"/>
<path d="M13.6662 12.2285C14.0344 12.2285 14.3328 12.4971 14.3328 12.8285V16.4285C14.3328 16.7599 14.0344 17.0285 13.6662 17.0285C13.298 17.0285 12.9995 16.7599 12.9995 16.4285L12.9995 12.8285C12.9995 12.4971 13.298 12.2285 13.6662 12.2285Z" fill="#FDF6EC"/>
</svg>
