<svg width="25" height="29" viewBox="0 0 25 29" fill="none" xmlns="http://www.w3.org/2000/svg">
<path fill-rule="evenodd" clip-rule="evenodd" d="M2.49827 12.087V19.437C2.49827 23.4962 5.98843 26.787 10.2937 26.787C14.599 26.787 18.0892 23.4962 18.0892 19.437V12.087H2.49827ZM0.270996 11.154C0.270996 10.5095 0.825196 9.98696 1.50877 9.98696H19.0787C19.7623 9.98696 20.3165 10.5095 20.3165 11.154V19.437C20.3165 24.656 15.8291 28.887 10.2937 28.887C4.75834 28.887 0.270996 24.656 0.270996 19.437V11.154Z" fill="#F9D7D8"/>
<path fill-rule="evenodd" clip-rule="evenodd" d="M18.0892 11.037C18.0892 10.4571 18.5878 9.98696 19.2028 9.98696C22.278 9.98696 24.771 12.3375 24.771 15.237C24.771 18.1365 22.278 20.487 19.2028 20.487C18.5878 20.487 18.0892 20.0169 18.0892 19.437C18.0892 18.8571 18.5878 18.387 19.2028 18.387C21.0479 18.387 22.5437 16.9767 22.5437 15.237C22.5437 13.4973 21.0479 12.087 19.2028 12.087C18.5878 12.087 18.0892 11.6169 18.0892 11.037Z" fill="#F9D7D8"/>
<path fill-rule="evenodd" clip-rule="evenodd" d="M1.38463 2.98696C1.99968 2.98696 2.49827 3.45706 2.49827 4.03696V6.13696C2.49827 6.71686 1.99968 7.18696 1.38463 7.18696C0.769588 7.18696 0.270996 6.71686 0.270996 6.13696V4.03696C0.270996 3.45706 0.769588 2.98696 1.38463 2.98696Z" fill="#F9D7D8"/>
<path fill-rule="evenodd" clip-rule="evenodd" d="M19.2028 2.98696C19.8179 2.98696 20.3165 3.45706 20.3165 4.03696V6.13696C20.3165 6.71686 19.8179 7.18696 19.2028 7.18696C18.5878 7.18696 18.0892 6.71686 18.0892 6.13696V4.03696C18.0892 3.45706 18.5878 2.98696 19.2028 2.98696Z" fill="#F9D7D8"/>
<path fill-rule="evenodd" clip-rule="evenodd" d="M10.2937 0.886963C10.9088 0.886963 11.4074 1.35706 11.4074 1.93696V6.13696C11.4074 6.71686 10.9088 7.18696 10.2937 7.18696C9.67868 7.18696 9.18009 6.71686 9.18009 6.13696V1.93696C9.18009 1.35706 9.67868 0.886963 10.2937 0.886963Z" fill="#F9D7D8"/>
</svg>
