<svg width="27" height="31" viewBox="0 0 27 31" fill="none" xmlns="http://www.w3.org/2000/svg">
<path d="M16.6973 3.04618C15.1458 1.47875 12.5759 1.47875 11.0244 3.04617L3.44621 10.702C3.01098 11.1417 2.71852 11.6975 2.60567 12.2995C1.68532 17.209 1.61738 22.235 2.40471 27.1666L2.68346 28.9126C2.77151 29.464 3.25708 29.8706 3.82769 29.8706H9.123C9.55911 29.8706 9.91264 29.5248 9.91264 29.0982V18.2843H17.8091V29.0982C17.8091 29.5248 18.1626 29.8706 18.5988 29.8706H23.894C24.4646 29.8706 24.9502 29.464 25.0382 28.9126L25.317 27.1666C26.1043 22.235 26.0364 17.209 25.116 12.2995C25.0032 11.6975 24.7107 11.1417 24.2755 10.702L16.6973 3.04618Z" stroke="#A9CEB6" stroke-width="2"/>
</svg>
