<svg width="28" height="28" viewBox="0 0 28 28" fill="none" xmlns="http://www.w3.org/2000/svg">
<path d="M3.58301 21.8747C3.10467 21.8747 2.70801 21.478 2.70801 20.9997V8.16634C2.70801 3.02134 4.27134 1.45801 9.41634 1.45801H17.583C22.728 1.45801 24.2913 3.02134 24.2913 8.16634V19.833C24.2913 20.0197 24.2913 20.1947 24.2797 20.3813C24.2447 20.8597 23.813 21.233 23.3463 21.198C22.868 21.163 22.4947 20.743 22.5297 20.2647C22.5413 20.1247 22.5413 19.973 22.5413 19.833V8.16634C22.5413 4.00134 21.7597 3.20801 17.583 3.20801H9.41634C5.23967 3.20801 4.45801 4.00134 4.45801 8.16634V20.9997C4.45801 21.478 4.06134 21.8747 3.58301 21.8747Z" fill="#A9CEB6"/>
<rect x="4" y="3" width="19" height="22" fill="#A9CEB6"/>
<path d="M19.333 26.5417H7.66634C4.93634 26.5417 2.70801 24.3133 2.70801 21.5833V20.825C2.70801 18.5033 4.59801 16.625 6.90801 16.625H23.4163C23.8947 16.625 24.2913 17.0217 24.2913 17.5V21.5833C24.2913 24.3133 22.063 26.5417 19.333 26.5417ZM6.90801 18.375C5.55467 18.375 4.45801 19.4717 4.45801 20.825V21.5833C4.45801 23.3567 5.89301 24.7917 7.66634 24.7917H19.333C21.1063 24.7917 22.5413 23.3567 22.5413 21.5833V18.375H6.90801Z" fill="#A9CEB6"/>
<path d="M18.1663 9.04199H8.83301C8.35467 9.04199 7.95801 8.64533 7.95801 8.16699C7.95801 7.68866 8.35467 7.29199 8.83301 7.29199H18.1663C18.6447 7.29199 19.0413 7.68866 19.0413 8.16699C19.0413 8.64533 18.6447 9.04199 18.1663 9.04199Z" fill="#FDF6EC"/>
<path d="M14.6663 13.125H8.83301C8.35467 13.125 7.95801 12.7283 7.95801 12.25C7.95801 11.7717 8.35467 11.375 8.83301 11.375H14.6663C15.1447 11.375 15.5413 11.7717 15.5413 12.25C15.5413 12.7283 15.1447 13.125 14.6663 13.125Z" fill="#FDF6EC"/>
<path d="M4.5 21.25C4.5 21.0179 4.5 20.9018 4.50642 20.8038C4.60489 19.3015 5.80152 18.1049 7.30379 18.0064C7.40179 18 7.51786 18 7.75 18H22.5V19.61C22.5 21.3751 22.5 22.2577 22.1402 22.9246C21.8622 23.4397 21.4397 23.8622 20.9246 24.1402C20.2577 24.5 19.3751 24.5 17.61 24.5H7.75C7.51786 24.5 7.40179 24.5 7.30379 24.4936C5.80152 24.3951 4.60489 23.1985 4.50642 21.6962C4.5 21.5982 4.5 21.4821 4.5 21.25V21.25Z" fill="#FDF6EC"/>
</svg>
