<svg width="32" height="34" viewBox="0 0 32 34" fill="none" xmlns="http://www.w3.org/2000/svg">
<path d="M8.95 19.4975L4 23.6193V7.13202C4 6.85873 4.10536 6.59662 4.29289 6.40338C4.48043 6.21013 4.73478 6.10156 5 6.10156H21C21.2652 6.10156 21.5196 6.21013 21.7071 6.40338C21.8946 6.59662 22 6.85873 22 7.13202V18.467C22 18.7403 21.8946 19.0024 21.7071 19.1957C21.5196 19.3889 21.2652 19.4975 21 19.4975H8.95Z" stroke="#539E6D" stroke-width="1.84714" stroke-linecap="round" stroke-linejoin="round"/>
<path d="M10 19.4974V24.6497C10 24.923 10.1054 25.1851 10.2929 25.3783C10.4804 25.5716 10.7348 25.6801 11 25.6801H23.05L28 29.8019V13.3146C28 13.0413 27.8946 12.7792 27.7071 12.586C27.5196 12.3927 27.2652 12.2842 27 12.2842H22" stroke="#539E6D" stroke-width="1.84714" stroke-linecap="round" stroke-linejoin="round"/>
<path d="M13.3334 17.4365C13.7843 17.4365 14.1497 17.0599 14.1497 16.5953C14.1497 16.1308 13.7843 15.7542 13.3334 15.7542C12.8826 15.7542 12.5171 16.1308 12.5171 16.5953C12.5171 17.0599 12.8826 17.4365 13.3334 17.4365Z" fill="#539E6D"/>
<path d="M13.3335 14.0718V13.511C13.7102 13.511 14.0785 13.3959 14.3917 13.1802C14.7049 12.9645 14.9491 12.658 15.0932 12.2993C15.2374 11.9407 15.2751 11.546 15.2016 11.1653C15.1281 10.7846 14.9467 10.4348 14.6803 10.1603C14.414 9.88583 14.0746 9.6989 13.7051 9.62316C13.3356 9.54743 12.9526 9.5863 12.6046 9.73486C12.2565 9.88342 11.959 10.135 11.7497 10.4578C11.5404 10.7805 11.4287 11.16 11.4287 11.5482" stroke="#539E6D" stroke-width="1.84714" stroke-linecap="round" stroke-linejoin="round"/>
</svg>
