<svg width="25" height="28" viewBox="0 0 25 28" fill="none" xmlns="http://www.w3.org/2000/svg">
<path d="M10.3332 2.12097C9.78088 2.12097 9.33316 1.65962 9.33316 1.09052C9.33316 0.52141 9.78088 0.0600586 10.3332 0.0600586H15.0472C15.5995 0.0600586 16.0472 0.52141 16.0472 1.09052C16.0472 1.65962 15.5995 2.12097 15.0472 2.12097H10.3332Z" fill="#539E6D"/>
<path d="M5.70694 2.74186C6.09747 3.14428 6.09747 3.79673 5.70694 4.19915L2.37361 7.63401C1.98309 8.03642 1.34992 8.03642 0.959397 7.63401C0.568873 7.23159 0.568873 6.57914 0.959397 6.17672L4.29273 2.74186C4.68326 2.33944 5.31642 2.33944 5.70694 2.74186Z" fill="#539E6D"/>
<path d="M12.9998 5.8749C7.66108 5.8749 3.33317 10.3346 3.33317 15.836C3.33317 21.3373 7.66108 25.7971 12.9998 25.7971C18.3386 25.7971 22.6665 21.3373 22.6665 15.836C22.6665 15.2669 23.1142 14.8055 23.6665 14.8055C24.2188 14.8055 24.6665 15.2669 24.6665 15.836C24.6665 22.4756 19.4432 27.858 12.9998 27.858C6.55651 27.858 1.33317 22.4756 1.33317 15.836C1.33317 9.19642 6.55651 3.81399 12.9998 3.81399C13.5521 3.81399 13.9998 4.27534 13.9998 4.84445C13.9998 5.41355 13.5521 5.8749 12.9998 5.8749Z" fill="#539E6D"/>
<path d="M19.9174 9.46675C20.2271 9.05653 20.1918 8.47294 19.8352 8.10546C19.4786 7.73799 18.9122 7.70166 18.5142 8.02071L14.2876 11.4081L11.5257 13.441C10.9358 13.8752 10.5856 14.5763 10.5856 15.3234C10.5856 16.601 11.5907 17.6368 12.8306 17.6368C13.5556 17.6368 14.236 17.276 14.6574 16.668L16.6301 13.822L19.9174 9.46675Z" fill="#539E6D"/>
</svg>
