<svg width="32" height="33" viewBox="0 0 32 33" fill="none" xmlns="http://www.w3.org/2000/svg">
<path d="M16 28.8528C22.6274 28.8528 28 23.3166 28 16.4873C28 9.65804 22.6274 4.12183 16 4.12183C9.37258 4.12183 4 9.65804 4 16.4873C4 23.3166 9.37258 28.8528 16 28.8528Z" stroke="#539E6D" stroke-width="1.84714" stroke-linecap="round" stroke-linejoin="round"/>
<path d="M16 20.6093C18.7614 20.6093 21 18.3025 21 15.457C21 12.6114 18.7614 10.3047 16 10.3047C13.2386 10.3047 11 12.6114 11 15.457C11 18.3025 13.2386 20.6093 16 20.6093Z" stroke="#539E6D" stroke-width="1.84714" stroke-linecap="round" stroke-linejoin="round"/>
<path d="M7.9751 25.6842C8.72749 24.1571 9.87555 22.8745 11.292 21.9786C12.7085 21.0826 14.3381 20.6084 16.0001 20.6084C17.6621 20.6084 19.2917 21.0826 20.7082 21.9786C22.1247 22.8745 23.2727 24.1571 24.0251 25.6842" stroke="#539E6D" stroke-width="1.84714" stroke-linecap="round" stroke-linejoin="round"/>
</svg>
